<mxfile host="app.diagrams.net" agent="Mozilla/5.0 (Windows NT 10.0; Win64; x64) AppleWebKit/537.36 (KHTML, like Gecko) Chrome/139.0.0.0 Safari/537.36" version="28.0.7">
  <diagram name="Page-1" id="ELM1Exo96G6Yz3BevJ_-">
    <mxGraphModel dx="1042" dy="697" grid="1" gridSize="10" guides="1" tooltips="1" connect="1" arrows="1" fold="1" page="1" pageScale="1" pageWidth="1200" pageHeight="1000" math="0" shadow="0">
      <root>
        <mxCell id="0" />
        <mxCell id="1" parent="0" />
        <mxCell id="Z3VLgdIoZNxR80unz3nu-1" value=":KWICClient" style="shape=umlLifeline;perimeter=lifelinePerimeter;whiteSpace=wrap;html=1;container=1;dropTarget=0;collapsible=0;recursiveResize=0;outlineConnect=0;portConstraint=eastwest;newEdgeStyle={&quot;curved&quot;:0,&quot;rounded&quot;:0};" vertex="1" parent="1">
          <mxGeometry x="300" y="110" width="100" height="570" as="geometry" />
        </mxCell>
        <mxCell id="Z3VLgdIoZNxR80unz3nu-30" value="" style="html=1;points=[[0,0,0,0,5],[0,1,0,0,-5],[1,0,0,0,5],[1,1,0,0,-5]];perimeter=orthogonalPerimeter;outlineConnect=0;targetShapes=umlLifeline;portConstraint=eastwest;newEdgeStyle={&quot;curved&quot;:0,&quot;rounded&quot;:0};" vertex="1" parent="Z3VLgdIoZNxR80unz3nu-1">
          <mxGeometry x="45" y="80" width="10" height="450" as="geometry" />
        </mxCell>
        <mxCell id="Z3VLgdIoZNxR80unz3nu-2" value="Client" style="shape=umlActor;verticalLabelPosition=bottom;verticalAlign=top;html=1;" vertex="1" parent="1">
          <mxGeometry x="140" y="160" width="30" height="60" as="geometry" />
        </mxCell>
        <mxCell id="Z3VLgdIoZNxR80unz3nu-4" value=":KWICServer" style="shape=umlLifeline;perimeter=lifelinePerimeter;whiteSpace=wrap;html=1;container=1;dropTarget=0;collapsible=0;recursiveResize=0;outlineConnect=0;portConstraint=eastwest;newEdgeStyle={&quot;curved&quot;:0,&quot;rounded&quot;:0};" vertex="1" parent="1">
          <mxGeometry x="570" y="110" width="100" height="570" as="geometry" />
        </mxCell>
        <mxCell id="Z3VLgdIoZNxR80unz3nu-7" value=":ClientHandler" style="shape=umlLifeline;perimeter=lifelinePerimeter;whiteSpace=wrap;html=1;container=1;dropTarget=0;collapsible=0;recursiveResize=0;outlineConnect=0;portConstraint=eastwest;newEdgeStyle={&quot;curved&quot;:0,&quot;rounded&quot;:0};" vertex="1" parent="1">
          <mxGeometry x="430" y="110" width="100" height="570" as="geometry" />
        </mxCell>
        <mxCell id="Z3VLgdIoZNxR80unz3nu-31" value="" style="html=1;points=[[0,0,0,0,5],[0,1,0,0,-5],[1,0,0,0,5],[1,1,0,0,-5]];perimeter=orthogonalPerimeter;outlineConnect=0;targetShapes=umlLifeline;portConstraint=eastwest;newEdgeStyle={&quot;curved&quot;:0,&quot;rounded&quot;:0};" vertex="1" parent="Z3VLgdIoZNxR80unz3nu-7">
          <mxGeometry x="45" y="110" width="10" height="40" as="geometry" />
        </mxCell>
        <mxCell id="Z3VLgdIoZNxR80unz3nu-8" value=":ClientSession" style="shape=umlLifeline;perimeter=lifelinePerimeter;whiteSpace=wrap;html=1;container=1;dropTarget=0;collapsible=0;recursiveResize=0;outlineConnect=0;portConstraint=eastwest;newEdgeStyle={&quot;curved&quot;:0,&quot;rounded&quot;:0};" vertex="1" parent="1">
          <mxGeometry x="730" y="110" width="100" height="570" as="geometry" />
        </mxCell>
        <mxCell id="Z3VLgdIoZNxR80unz3nu-33" value="" style="html=1;points=[[0,0,0,0,5],[0,1,0,0,-5],[1,0,0,0,5],[1,1,0,0,-5]];perimeter=orthogonalPerimeter;outlineConnect=0;targetShapes=umlLifeline;portConstraint=eastwest;newEdgeStyle={&quot;curved&quot;:0,&quot;rounded&quot;:0};" vertex="1" parent="Z3VLgdIoZNxR80unz3nu-8">
          <mxGeometry x="45" y="270" width="10" height="60" as="geometry" />
        </mxCell>
        <mxCell id="Z3VLgdIoZNxR80unz3nu-9" value="Enters keyword" style="html=1;verticalAlign=bottom;startArrow=oval;startFill=1;endArrow=block;startSize=8;curved=0;rounded=0;" edge="1" parent="1">
          <mxGeometry width="60" relative="1" as="geometry">
            <mxPoint x="180" y="190" as="sourcePoint" />
            <mxPoint x="349.5" y="190" as="targetPoint" />
          </mxGeometry>
        </mxCell>
        <mxCell id="Z3VLgdIoZNxR80unz3nu-10" value="searchKeyword(keyword)" style="html=1;verticalAlign=bottom;endArrow=block;curved=0;rounded=0;fontSize=9;" edge="1" parent="1" target="Z3VLgdIoZNxR80unz3nu-7">
          <mxGeometry width="80" relative="1" as="geometry">
            <mxPoint x="360" y="230" as="sourcePoint" />
            <mxPoint x="430" y="230" as="targetPoint" />
          </mxGeometry>
        </mxCell>
        <mxCell id="Z3VLgdIoZNxR80unz3nu-11" value="Sends keyword to server" style="html=1;verticalAlign=bottom;endArrow=block;curved=0;rounded=0;fontSize=9;" edge="1" parent="1" target="Z3VLgdIoZNxR80unz3nu-4">
          <mxGeometry width="80" relative="1" as="geometry">
            <mxPoint x="480" y="260" as="sourcePoint" />
            <mxPoint x="620" y="250" as="targetPoint" />
          </mxGeometry>
        </mxCell>
        <mxCell id="Z3VLgdIoZNxR80unz3nu-12" value="Alt" style="shape=umlFrame;whiteSpace=wrap;html=1;pointerEvents=0;" vertex="1" parent="1">
          <mxGeometry x="330" y="240" width="310" height="160" as="geometry" />
        </mxCell>
        <mxCell id="Z3VLgdIoZNxR80unz3nu-13" value="" style="endArrow=none;dashed=1;html=1;rounded=0;entryX=0.012;entryY=0.544;entryDx=0;entryDy=0;entryPerimeter=0;exitX=1;exitY=0.544;exitDx=0;exitDy=0;exitPerimeter=0;" edge="1" parent="1" source="Z3VLgdIoZNxR80unz3nu-12" target="Z3VLgdIoZNxR80unz3nu-12">
          <mxGeometry width="50" height="50" relative="1" as="geometry">
            <mxPoint x="460" y="390" as="sourcePoint" />
            <mxPoint x="510" y="340" as="targetPoint" />
          </mxGeometry>
        </mxCell>
        <mxCell id="Z3VLgdIoZNxR80unz3nu-14" value="[server unresponsive]" style="text;html=1;align=center;verticalAlign=middle;whiteSpace=wrap;rounded=0;fontSize=9;" vertex="1" parent="1">
          <mxGeometry x="325" y="330" width="130" height="20" as="geometry" />
        </mxCell>
        <mxCell id="Z3VLgdIoZNxR80unz3nu-15" value="[server connected]" style="text;html=1;align=center;verticalAlign=middle;whiteSpace=wrap;rounded=0;fontSize=9;" vertex="1" parent="1">
          <mxGeometry x="310" y="270" width="130" height="20" as="geometry" />
        </mxCell>
        <mxCell id="Z3VLgdIoZNxR80unz3nu-16" value="&lt;font style=&quot;font-size: 9px;&quot;&gt;returns The KWIC server is not responding&lt;/font&gt;" style="html=1;verticalAlign=bottom;endArrow=open;dashed=1;endSize=8;curved=0;rounded=0;" edge="1" parent="1">
          <mxGeometry relative="1" as="geometry">
            <mxPoint x="619.75" y="364.5" as="sourcePoint" />
            <mxPoint x="360" y="365" as="targetPoint" />
          </mxGeometry>
        </mxCell>
        <mxCell id="Z3VLgdIoZNxR80unz3nu-17" value="delegate search" style="html=1;verticalAlign=bottom;endArrow=block;curved=0;rounded=0;fontSize=9;" edge="1" parent="1">
          <mxGeometry width="80" relative="1" as="geometry">
            <mxPoint x="620" y="390" as="sourcePoint" />
            <mxPoint x="770" y="390" as="targetPoint" />
          </mxGeometry>
        </mxCell>
        <mxCell id="Z3VLgdIoZNxR80unz3nu-20" value=":KeywordSearch" style="shape=umlLifeline;perimeter=lifelinePerimeter;whiteSpace=wrap;html=1;container=1;dropTarget=0;collapsible=0;recursiveResize=0;outlineConnect=0;portConstraint=eastwest;newEdgeStyle={&quot;curved&quot;:0,&quot;rounded&quot;:0};" vertex="1" parent="1">
          <mxGeometry x="890" y="110" width="100" height="570" as="geometry" />
        </mxCell>
        <mxCell id="Z3VLgdIoZNxR80unz3nu-36" value="" style="html=1;points=[[0,0,0,0,5],[0,1,0,0,-5],[1,0,0,0,5],[1,1,0,0,-5]];perimeter=orthogonalPerimeter;outlineConnect=0;targetShapes=umlLifeline;portConstraint=eastwest;newEdgeStyle={&quot;curved&quot;:0,&quot;rounded&quot;:0};" vertex="1" parent="Z3VLgdIoZNxR80unz3nu-20">
          <mxGeometry x="45" y="310" width="10" height="60" as="geometry" />
        </mxCell>
        <mxCell id="Z3VLgdIoZNxR80unz3nu-21" value="getKeywordLines(keyword)" style="html=1;verticalAlign=bottom;endArrow=block;curved=0;rounded=0;fontSize=9;" edge="1" parent="1">
          <mxGeometry width="80" relative="1" as="geometry">
            <mxPoint x="790" y="430" as="sourcePoint" />
            <mxPoint x="930" y="430" as="targetPoint" />
          </mxGeometry>
        </mxCell>
        <mxCell id="Z3VLgdIoZNxR80unz3nu-22" value="returns search result" style="html=1;verticalAlign=bottom;endArrow=open;dashed=1;endSize=8;curved=0;rounded=0;" edge="1" parent="1" source="Z3VLgdIoZNxR80unz3nu-20">
          <mxGeometry relative="1" as="geometry">
            <mxPoint x="860" y="480" as="sourcePoint" />
            <mxPoint x="780" y="480" as="targetPoint" />
          </mxGeometry>
        </mxCell>
        <mxCell id="Z3VLgdIoZNxR80unz3nu-23" value="Alt" style="shape=umlFrame;whiteSpace=wrap;html=1;pointerEvents=0;" vertex="1" parent="1">
          <mxGeometry x="325" y="490" width="675" height="150" as="geometry" />
        </mxCell>
        <mxCell id="Z3VLgdIoZNxR80unz3nu-24" value="" style="endArrow=none;dashed=1;html=1;rounded=0;entryX=0.012;entryY=0.544;entryDx=0;entryDy=0;entryPerimeter=0;" edge="1" parent="1">
          <mxGeometry width="50" height="50" relative="1" as="geometry">
            <mxPoint x="1000" y="564.5" as="sourcePoint" />
            <mxPoint x="319" y="564.5" as="targetPoint" />
          </mxGeometry>
        </mxCell>
        <mxCell id="Z3VLgdIoZNxR80unz3nu-25" value="[keyword found]" style="text;html=1;align=center;verticalAlign=middle;whiteSpace=wrap;rounded=0;fontSize=9;" vertex="1" parent="1">
          <mxGeometry x="300" y="520" width="130" height="20" as="geometry" />
        </mxCell>
        <mxCell id="Z3VLgdIoZNxR80unz3nu-26" value="[keyword not found]" style="text;html=1;align=center;verticalAlign=middle;whiteSpace=wrap;rounded=0;fontSize=9;" vertex="1" parent="1">
          <mxGeometry x="310" y="570" width="130" height="20" as="geometry" />
        </mxCell>
        <mxCell id="Z3VLgdIoZNxR80unz3nu-28" value="return keyword lines" style="html=1;verticalAlign=bottom;endArrow=open;dashed=1;endSize=8;curved=0;rounded=0;" edge="1" parent="1">
          <mxGeometry relative="1" as="geometry">
            <mxPoint x="780" y="550" as="sourcePoint" />
            <mxPoint x="360" y="550" as="targetPoint" />
          </mxGeometry>
        </mxCell>
        <mxCell id="Z3VLgdIoZNxR80unz3nu-29" value="return [keyword] not found" style="html=1;verticalAlign=bottom;endArrow=open;dashed=1;endSize=8;curved=0;rounded=0;" edge="1" parent="1">
          <mxGeometry relative="1" as="geometry">
            <mxPoint x="780" y="600" as="sourcePoint" />
            <mxPoint x="360" y="600" as="targetPoint" />
          </mxGeometry>
        </mxCell>
        <mxCell id="Z3VLgdIoZNxR80unz3nu-32" value="" style="html=1;points=[[0,0,0,0,5],[0,1,0,0,-5],[1,0,0,0,5],[1,1,0,0,-5]];perimeter=orthogonalPerimeter;outlineConnect=0;targetShapes=umlLifeline;portConstraint=eastwest;newEdgeStyle={&quot;curved&quot;:0,&quot;rounded&quot;:0};" vertex="1" parent="1">
          <mxGeometry x="615" y="260" width="10" height="130" as="geometry" />
        </mxCell>
        <mxCell id="Z3VLgdIoZNxR80unz3nu-37" value="" style="html=1;points=[[0,0,0,0,5],[0,1,0,0,-5],[1,0,0,0,5],[1,1,0,0,-5]];perimeter=orthogonalPerimeter;outlineConnect=0;targetShapes=umlLifeline;portConstraint=eastwest;newEdgeStyle={&quot;curved&quot;:0,&quot;rounded&quot;:0};" vertex="1" parent="1">
          <mxGeometry x="775" y="480" width="10" height="120" as="geometry" />
        </mxCell>
      </root>
    </mxGraphModel>
  </diagram>
</mxfile>
